<?xml version="1.0" encoding="UTF-8" standalone="no"?>
<svg
   version="1.1"
   width="719px"
   height="425px"
   style="shape-rendering:geometricPrecision; text-rendering:geometricPrecision; image-rendering:optimizeQuality; fill-rule:evenodd; clip-rule:evenodd"
   id="svg42"
   sodipodi:docname="logo.svg"
   inkscape:version="1.3.2 (091e20e, 2023-11-25, custom)"
   xmlns:inkscape="http://www.inkscape.org/namespaces/inkscape"
   xmlns:sodipodi="http://sodipodi.sourceforge.net/DTD/sodipodi-0.dtd"
   xmlns="http://www.w3.org/2000/svg"
   xmlns:svg="http://www.w3.org/2000/svg">
  <defs
     id="defs42">
    <rect
       x="711"
       y="32"
       width="151"
       height="396"
       id="rect64" />
  </defs>
  <sodipodi:namedview
     id="namedview42"
     pagecolor="#505050"
     bordercolor="#ffffff"
     borderopacity="1"
     inkscape:showpageshadow="0"
     inkscape:pageopacity="0"
     inkscape:pagecheckerboard="1"
     inkscape:deskcolor="#505050"
     inkscape:zoom="1"
     inkscape:cx="519"
     inkscape:cy="160.5"
     inkscape:window-width="1920"
     inkscape:window-height="1009"
     inkscape:window-x="-8"
     inkscape:window-y="224"
     inkscape:window-maximized="1"
     inkscape:current-layer="g74" />
  <g
     id="g75"
     inkscape:label="g4"
     style="clip-rule:evenodd;display:inline;fill-rule:evenodd;image-rendering:optimizeQuality;shape-rendering:geometricPrecision;text-rendering:geometricPrecision"
     transform="translate(100.369,64.298893)">
    <path
       id="path45"
       style="clip-rule:evenodd;display:inline;fill:#acacac;fill-opacity:1;fill-rule:evenodd;stroke-width:0.184822;image-rendering:optimizeQuality;shape-rendering:geometricPrecision;text-rendering:geometricPrecision"
       d="m 503.81655,64.005794 c -11.81755,-0.09936 -22.93336,6.81506 -28.13282,17.888672 H 281.84194 v 29.203124 h 195.125 c 0.47404,0.83643 0.96945,1.64253 1.49414,2.38281 1.59744,2.25379 5.18699,5.84438 7.43554,7.43555 4.15421,2.93969 9.34604,4.90483 14.5254,5.49805 1.9344,0.22156 6.041,0.0835 8.11523,-0.27149 11.63198,-1.99071 21.28349,-10.62752 24.58008,-21.99609 1.63129,-5.624321 1.63252,-12.126515 0.004,-17.72461 -2.5421,-8.738052 -8.85914,-16.021615 -17.10742,-19.724609 -4.00594,-1.798431 -8.14276,-2.657318 -12.19726,-2.691407 z"
       inkscape:label="path3" />
    <ellipse
       style="clip-rule:evenodd;fill:#000000;fill-opacity:1;fill-rule:evenodd;image-rendering:optimizeQuality;shape-rendering:geometricPrecision;text-rendering:geometricPrecision"
       id="path46"
       cx="503.26999"
       cy="95.275681"
       rx="12.198244"
       ry="12.475477"
       inkscape:label="ellipse2" />
  </g>
  <g
     id="g74"
     inkscape:label="g3"
     style="clip-rule:evenodd;display:inline;fill-rule:evenodd;image-rendering:optimizeQuality;shape-rendering:geometricPrecision;text-rendering:geometricPrecision"
     transform="translate(105.59281,270.85492)">
    <path
       style="display:inline;fill:#6d6d6d;fill-opacity:1;stroke:#6d6d6d;stroke-width:0.711;stroke-dasharray:none;stroke-opacity:1"
       d="m 601.5,395.66107 c -6.78511,-2.24745 -10.0646,-4.38295 -14.77272,-9.6195 L 582.19448,381 h -30.93767 -30.93766 l -4.58497,-8.75 c -2.52174,-4.8125 -8.68704,-16.175 -13.70068,-25.25 -5.01364,-9.075 -11.22378,-20.6625 -13.80029,-25.75 L 483.54863,312 H 433.77431 384 v -14 -14 h 59.38474 59.38474 l 14.05464,26.25 c 7.73005,14.4375 15.99442,29.95489 18.36526,34.48309 l 4.31062,8.2331 21.16844,0.0169 21.16844,0.0169 2.15248,-3.48278 c 7.63363,-12.35149 24.62862,-17.36361 37.50868,-11.06198 6.65266,3.25484 13.77745,10.9702 15.90993,17.2287 2.17597,6.3861 2.01576,15.10852 -0.3959,21.55425 -2.27988,6.09354 -9.1655,13.38256 -15.74976,16.67248 -5.37996,2.68817 -14.49403,3.49543 -19.76231,1.7504 z m 14.73384,-18.50303 c 5.7279,-3.28979 7.45905,-12.3502 3.48614,-18.24559 -2.80059,-4.15581 -6.03267,-5.87842 -11.06569,-5.89771 C 601.23992,352.98632 596,358.34422 596,365.95395 c 0,11.2898 10.22583,16.95216 20.23384,11.20409 z"
       id="path64"
       transform="translate(-105.59281,-270.85492)"
       inkscape:label="path3" />
  </g>
  <g
     id="g80"
     inkscape:label="g2">
    <g
       id="g79"
       style="shape-rendering:geometricPrecision;text-rendering:geometricPrecision;image-rendering:optimizeQuality;fill-rule:evenodd;clip-rule:evenodd;display:inline"
       transform="translate(178.78228,134.08672)"
       inkscape:label="g6">
      <path
         style="display:inline;fill:#acacac;fill-opacity:1;stroke-width:0.184822"
         d="m 500.42179,126.41304 c -5.17936,-0.59322 -10.37085,-2.55829 -14.52506,-5.49798 -2.24856,-1.59117 -5.83898,-5.18063 -7.43642,-7.43442 -2.53469,-3.57615 -4.55221,-8.45274 -5.33886,-12.90469 -0.53059,-3.002809 -0.53059,-7.597729 0,-10.600536 3.54923,-20.086444 24.57854,-31.499497 42.89142,-23.278092 8.24829,3.702998 14.5656,10.986692 17.10771,19.724753 1.62862,5.5981 1.62729,12.100729 -0.004,17.725055 -3.29659,11.36858 -12.94757,20.00506 -24.57956,21.99578 -2.07423,0.35499 -6.18121,0.49169 -8.11562,0.27013 z"
         id="path48" />
      <ellipse
         style="fill:#000000;fill-opacity:1"
         id="ellipse48"
         cx="503.26999"
         cy="95.275681"
         rx="12.198244"
         ry="12.475477"
         inkscape:label="ellipse48" />
    </g>
    <rect
       style="clip-rule:evenodd;fill:#acacac;fill-opacity:1;fill-rule:evenodd;stroke-width:1.31349;image-rendering:optimizeQuality;shape-rendering:geometricPrecision;text-rendering:geometricPrecision"
       id="rect52"
       width="305.14093"
       height="29.201857"
       x="352"
       y="215.68713"
       inkscape:label="rect1" />
    <path
       id="path52"
       style="fill:#acacac;fill-opacity:1;stroke-width:0.934287"
       d="M 255.05469 130.85352 A 102.76098 101.28239 0 0 0 152.29297 232.13672 A 102.76098 101.28239 0 0 0 255.05469 333.41797 A 102.76098 101.28239 0 0 0 357.81445 232.13672 A 102.76098 101.28239 0 0 0 255.05469 130.85352 z M 254.68359 154.51172 A 77.255554 77.625191 0 0 1 331.93945 232.13672 A 77.255554 77.625191 0 0 1 254.68359 309.76172 A 77.255554 77.625191 0 0 1 177.42969 232.13672 A 77.255554 77.625191 0 0 1 254.68359 154.51172 z "
       inkscape:label="path2" />
  </g>
  <g
     id="g76"
     inkscape:label="g1">
    <g
       id="g78"
       style="shape-rendering:geometricPrecision;text-rendering:geometricPrecision;image-rendering:optimizeQuality;fill-rule:evenodd;clip-rule:evenodd;display:inline"
       transform="translate(-53.354009,275.29065)"
       inkscape:label="g5">
      <path
         style="display:inline;fill:#acacac;fill-opacity:1;stroke-width:0.184822"
         d="m 500.42179,126.41304 c -5.17936,-0.59322 -10.37085,-2.55829 -14.52506,-5.49798 -2.24856,-1.59117 -5.83898,-5.18063 -7.43642,-7.43442 -2.53469,-3.57615 -4.55221,-8.45274 -5.33886,-12.90469 -0.53059,-3.002809 -0.53059,-7.597729 0,-10.600536 3.54923,-20.086444 24.57854,-31.499497 42.89142,-23.278092 8.24829,3.702998 14.5656,10.986692 17.10771,19.724753 1.62862,5.5981 1.62729,12.100729 -0.004,17.725055 -3.29659,11.36858 -12.94757,20.00506 -24.57956,21.99578 -2.07423,0.35499 -6.18121,0.49169 -8.11562,0.27013 z"
         id="path50"
         inkscape:label="path5" />
      <ellipse
         style="fill:#000000;fill-opacity:1"
         id="ellipse50"
         cx="503.26999"
         cy="95.275681"
         rx="12.198244"
         ry="12.475477"
         inkscape:label="ellipse4" />
    </g>
    <g
       id="g77"
       style="shape-rendering:geometricPrecision;text-rendering:geometricPrecision;image-rendering:optimizeQuality;fill-rule:evenodd;clip-rule:evenodd;display:inline"
       inkscape:label="g4">
      <path
         style="display:inline;fill:#acacac;fill-opacity:1;stroke-width:0.184822"
         d="m 500.42179,126.41304 c -5.17936,-0.59322 -10.37085,-2.55829 -14.52506,-5.49798 -2.24856,-1.59117 -5.83898,-5.18063 -7.43642,-7.43442 -2.53469,-3.57615 -4.55221,-8.45274 -5.33886,-12.90469 -0.53059,-3.002809 -0.53059,-7.597729 0,-10.600536 3.54923,-20.086444 24.57854,-31.499497 42.89142,-23.278092 8.24829,3.702998 14.5656,10.986692 17.10771,19.724753 1.62862,5.5981 1.62729,12.100729 -0.004,17.725055 -3.29659,11.36858 -12.94757,20.00506 -24.57956,21.99578 -2.07423,0.35499 -6.18121,0.49169 -8.11562,0.27013 z"
         id="path47"
         inkscape:label="path4" />
      <ellipse
         style="clip-rule:evenodd;display:inline;fill:#000000;fill-opacity:1;fill-rule:evenodd;image-rendering:optimizeQuality;shape-rendering:geometricPrecision;text-rendering:geometricPrecision"
         id="ellipse47"
         cx="503.26999"
         cy="95.275681"
         rx="12.198244"
         ry="12.475477"
         inkscape:label="ellipse3" />
    </g>
    <path
       id="rect53"
       style="clip-rule:evenodd;display:inline;fill:#acacac;fill-opacity:1;fill-rule:evenodd;stroke-width:1.47465;image-rendering:optimizeQuality;shape-rendering:geometricPrecision;text-rendering:geometricPrecision"
       d="M 300.46289,22.841797 C 275.07284,22.811922 298.86183,22.83489 299,23 L 258,83 H 43 V 386 H 423.79688 V 362 H 67 V 107 h 202 l 41,-60 h 53 v 60 c 46.05276,0.0707 70.9473,-0.10932 117,0 V 83 H 387 V 23 c -20.57771,-0.04561 -61.14705,-0.128328 -86.53711,-0.158203 z"
       sodipodi:nodetypes="sccccccccccccccccs"
       inkscape:label="path1" />
  </g>
</svg>
